<?xml version="1.0" standalone="no"?>
<!DOCTYPE svg PUBLIC "-//W3C//DTD SVG 20010904//EN"
 "http://www.w3.org/TR/2001/REC-SVG-20010904/DTD/svg10.dtd">
<svg version="1.0" xmlns="http://www.w3.org/2000/svg"
 width="500.000000pt" height="500.000000pt" viewBox="0 0 500.000000 500.000000"
 preserveAspectRatio="xMidYMid meet">
<metadata>
Created by potrace 1.11, written by Peter Selinger 2001-2013
</metadata>
<g transform="translate(0.000000,500.000000) scale(0.100000,-0.100000)"
fill="#000000" stroke="none">
<path d="M0 4511 l0 -489 103 -25 c188 -46 241 -52 487 -52 240 0 303 6 464
47 323 80 651 257 872 470 44 43 52 47 63 34 7 -9 11 -22 8 -30 -17 -42 -309
-259 -462 -341 -431 -231 -983 -296 -1455 -170 -30 8 -61 15 -67 15 -10 0 -13
-404 -13 -1985 l0 -1985 2500 0 2500 0 0 395 c0 364 -1 395 -18 405 -16 11
-16 11 1 6 16 -5 17 99 17 2094 l0 2100 -1282 0 -1283 0 -50 -77 c-99 -153
-255 -343 -281 -343 -35 0 -26 33 23 83 75 78 201 244 247 325 6 9 -234 12
-1183 12 l-1191 0 0 -489z m4438 -1871 l143 -190 -143 -189 -143 -190 -1942 0
-1943 -1 0 380 0 380 1943 0 1942 -1 143 -189z m-1208 -1230 c0 -5 -4 -10 -10
-10 -5 0 -10 5 -10 10 0 6 5 10 10 10 6 0 10 -4 10 -10z m47 -16 c-3 -3 -12
-4 -19 -1 -8 3 -5 6 6 6 11 1 17 -2 13 -5z m56 -21 c-7 -2 -19 -2 -25 0 -7 3
-2 5 12 5 14 0 19 -2 13 -5z m72 -23 c8 -13 -5 -13 -25 0 -13 8 -13 10 2 10 9
0 20 -4 23 -10z m60 -20 c13 -6 15 -9 5 -9 -8 0 -22 4 -30 9 -18 12 -2 12 25
0z m95 -30 c25 -10 36 -19 25 -19 -23 1 -107 37 -85 38 8 0 35 -9 60 -19z
m-530 -52 c0 -16 -3 -19 -11 -11 -6 6 -8 16 -5 22 11 17 16 13 16 -11z m645
12 c8 -13 -15 -13 -35 0 -12 8 -11 10 7 10 12 0 25 -4 28 -10z m55 -20 c13 -9
13 -10 0 -10 -8 0 -22 5 -30 10 -13 9 -13 10 0 10 8 0 22 -5 30 -10z m60 -20
c13 -9 13 -10 0 -10 -8 0 -22 5 -30 10 -13 9 -13 10 0 10 8 0 22 -5 30 -10z
m-753 -32 c-3 -8 -6 -5 -6 6 -1 11 2 17 5 13 3 -3 4 -12 1 -19z m820 6 c-3 -3
-12 -4 -19 -1 -8 3 -5 6 6 6 11 1 17 -2 13 -5z m48 -14 c19 -8 19 -9 -2 -9
-12 -1 -25 4 -28 9 -7 12 2 12 30 0z m-852 -65 c4 -27 3 -35 -3 -25 -5 8 -10
28 -10 44 0 39 6 30 13 -19z m937 35 c13 -9 13 -10 0 -10 -8 0 -22 5 -30 10
-13 9 -13 10 0 10 8 0 22 -5 30 -10z m60 -20 c13 -9 13 -10 0 -10 -8 0 -22 5
-30 10 -13 9 -13 10 0 10 8 0 22 -5 30 -10z m67 -26 c-3 -3 -12 -4 -19 -1 -8
3 -5 6 6 6 11 1 17 -2 13 -5z m60 -20 c-3 -3 -12 -4 -19 -1 -8 3 -5 6 6 6 11
1 17 -2 13 -5z m67 -23 c4 -5 -3 -7 -14 -4 -23 6 -26 13 -6 13 8 0 17 -4 20
-9z m-1177 -38 c-3 -10 -5 -4 -5 12 0 17 2 24 5 18 2 -7 2 -21 0 -30z m1243
17 c18 -12 2 -12 -25 0 -13 6 -15 9 -5 9 8 0 22 -4 30 -9z m60 -20 c13 -8 13
-10 -2 -10 -9 0 -20 5 -23 10 -8 13 5 13 25 0z m-1293 -42 c-3 -8 -6 -5 -6 6
-1 11 2 17 5 13 3 -3 4 -12 1 -19z m1360 16 c-3 -3 -12 -4 -19 -1 -8 3 -5 6 6
6 11 1 17 -2 13 -5z m60 -20 c-3 -3 -12 -4 -19 -1 -8 3 -5 6 6 6 11 1 17 -2
13 -5z m-1410 -51 c-3 -10 -5 -4 -5 12 0 17 2 24 5 18 2 -7 2 -21 0 -30z
m1483 27 c18 -12 2 -12 -25 0 -13 6 -15 9 -5 9 8 0 22 -4 30 -9z m60 -20 c13
-9 13 -10 0 -10 -8 0 -22 5 -30 10 -13 9 -13 10 0 10 8 0 22 -5 30 -10z m60
-20 c13 -9 13 -10 0 -10 -8 0 -22 5 -30 10 -13 9 -13 10 0 10 8 0 22 -5 30
-10z m-1593 -42 c-3 -7 -5 -2 -5 12 0 14 2 19 5 13 2 -7 2 -19 0 -25z m1653
22 c12 -8 11 -10 -7 -10 -12 0 -25 5 -28 10 -8 13 15 13 35 0z m67 -26 c-3 -3
-12 -4 -19 -1 -8 3 -5 6 6 6 11 1 17 -2 13 -5z m73 -24 c13 -9 13 -10 0 -10
-8 0 -22 5 -30 10 -13 9 -13 10 0 10 8 0 22 -5 30 -10z m-1783 -22 c-3 -8 -6
-5 -6 6 -1 11 2 17 5 13 3 -3 4 -12 1 -19z m1843 2 c13 -9 13 -10 0 -10 -8 0
-22 5 -30 10 -13 9 -13 10 0 10 8 0 22 -5 30 -10z m-1833 -52 c-3 -7 -5 -2 -5
12 0 14 2 19 5 13 2 -7 2 -19 0 -25z m10 -60 c-3 -7 -5 -2 -5 12 0 14 2 19 5
13 2 -7 2 -19 0 -25z m21 -83 c0 -16 -2 -15 -8 5 -4 14 -8 34 -8 45 0 16 2 15
8 -5 4 -14 8 -34 8 -45z m9 -62 c-3 -10 -5 -4 -5 12 0 17 2 24 5 18 2 -7 2
-21 0 -30z m10 -55 c-3 -8 -6 -5 -6 6 -1 11 2 17 5 13 3 -3 4 -12 1 -19z m21
-83 l1 -20 -9 20 c-5 11 -8 31 -8 45 l0 25 8 -25 c4 -14 8 -34 8 -45z m20
-110 c0 -16 -2 -15 -8 5 -4 14 -8 36 -8 50 0 22 1 22 8 -5 4 -16 8 -39 8 -50z
m19 -117 c-3 -7 -5 -2 -5 12 0 14 2 19 5 13 2 -7 2 -19 0 -25z m26 -108 c4
-30 3 -38 -3 -25 -8 19 -14 83 -6 74 2 -2 6 -24 9 -49z"/>
<path d="M540 2445 l0 -255 255 0 255 0 0 255 0 255 -255 0 -255 0 0 -255z
m330 110 c0 -12 -15 -15 -75 -15 -60 0 -75 3 -75 15 0 12 15 15 75 15 60 0 75
-3 75 -15z m-165 -126 c0 -72 -3 -94 -13 -94 -11 0 -14 22 -13 93 0 50 0 95 1
98 0 3 6 4 13 2 8 -3 12 -32 12 -99z m210 0 c0 -72 -3 -94 -13 -94 -11 0 -14
22 -13 93 0 50 0 95 1 98 0 3 6 4 13 2 8 -3 12 -32 12 -99z"/>
<path d="M1318 2634 c-37 -19 -48 -43 -48 -102 0 -39 5 -54 25 -74 l24 -25
-34 -71 c-34 -72 -34 -72 -11 -72 19 0 29 12 54 70 19 43 37 70 46 70 13 0 16
-13 16 -70 0 -63 2 -70 20 -70 19 0 20 7 20 180 l0 180 -42 0 c-24 -1 -55 -7
-70 -16z m72 -94 c0 -75 -1 -80 -22 -80 -36 0 -58 28 -58 77 0 48 25 83 60 83
18 0 20 -7 20 -80z"/>
<path d="M2470 2465 c0 -110 4 -175 10 -175 6 0 10 62 10 165 l0 165 55 0 55
0 0 -165 c0 -103 4 -165 10 -165 6 0 10 65 10 175 l0 175 -75 0 -75 0 0 -175z"/>
<path d="M1898 2536 c-69 -34 -59 -228 12 -246 35 -9 91 7 84 24 -4 10 -17 12
-43 9 -32 -4 -38 -2 -49 21 -25 55 -18 66 44 66 l56 0 -7 48 c-10 72 -48 102
-97 78z m56 -48 c11 -42 7 -48 -29 -48 -25 0 -35 4 -35 16 0 49 52 75 64 32z"/>
<path d="M2255 2536 c-39 -17 -55 -53 -55 -124 0 -101 47 -144 127 -117 27 9
2 31 -29 27 -43 -7 -58 17 -58 93 0 76 15 100 58 93 26 -4 32 -1 32 14 0 10
-4 18 -9 18 -5 0 -15 2 -23 5 -7 2 -27 -2 -43 -9z"/>
<path d="M1480 2415 c0 -118 1 -125 20 -125 18 0 20 7 20 55 0 54 0 55 30 55
30 0 30 -1 30 -55 0 -48 2 -55 20 -55 19 0 20 7 20 125 0 118 -1 125 -20 125
-18 0 -20 -7 -20 -55 0 -54 0 -55 -30 -55 -30 0 -30 1 -30 55 0 48 -2 55 -20
55 -19 0 -20 -7 -20 -125z"/>
<path d="M1682 2438 c-8 -71 -16 -106 -26 -114 -10 -7 -16 -26 -16 -48 0 -29
4 -36 20 -36 15 0 20 7 20 25 0 24 3 25 55 25 52 0 55 -1 55 -25 0 -16 6 -25
15 -25 11 0 15 11 15 40 0 22 -4 40 -10 40 -6 0 -10 43 -10 110 l0 110 -53 0
-54 0 -11 -102z m88 -23 l0 -95 -36 0 c-33 0 -36 2 -30 23 3 12 9 55 13 95 6
67 8 72 29 72 24 0 24 -2 24 -95z"/>
<path d="M2040 2415 c0 -118 1 -125 20 -125 18 0 20 7 21 63 l0 62 32 -62 c24
-48 36 -63 53 -63 21 0 20 2 -14 67 l-35 67 32 58 c30 54 30 58 12 58 -15 0
-29 -16 -50 -57 l-30 -58 -1 58 c0 50 -2 57 -20 57 -19 0 -20 -7 -20 -125z"/>
<path d="M2680 2375 c0 -103 4 -165 10 -165 6 0 10 20 10 45 0 43 1 45 21 35
30 -17 66 -4 84 30 18 35 20 151 4 183 -23 42 -57 49 -89 17 l-20 -20 0 20 c0
11 -4 20 -10 20 -6 0 -10 -62 -10 -165z m108 120 c18 -38 15 -146 -4 -173 -19
-27 -60 -29 -74 -3 -16 31 -12 148 6 176 22 33 57 33 72 0z"/>
<path d="M2888 2529 c-29 -17 -20 -28 12 -16 42 16 64 0 68 -47 3 -35 2 -36
-32 -36 -46 0 -76 -29 -76 -73 0 -65 50 -98 92 -60 11 9 18 11 18 5 0 -7 5
-12 10 -12 18 0 13 202 -6 228 -16 24 -56 29 -86 11z m82 -147 c0 -63 -45
-103 -78 -70 -17 17 -15 68 5 90 9 10 29 18 45 18 26 0 28 -3 28 -38z"/>
<path d="M3050 2415 c0 -77 4 -125 10 -125 6 0 10 28 10 63 l0 62 41 -62 c23
-35 46 -63 50 -63 14 0 11 8 -26 63 -19 28 -35 58 -35 66 0 7 16 36 36 63 20
27 33 52 30 56 -4 3 -10 2 -14 -4 -4 -5 -23 -32 -42 -59 l-35 -50 -3 58 c-2
31 -7 57 -12 57 -6 0 -10 -53 -10 -125z"/>
<path d="M3190 2530 c0 -5 14 -10 30 -10 l30 0 0 -115 c0 -70 4 -115 10 -115
6 0 10 45 10 115 l0 115 30 0 c17 0 30 5 30 10 0 6 -30 10 -70 10 -40 0 -70
-4 -70 -10z"/>
<path d="M3370 2414 c0 -84 4 -124 11 -122 5 2 29 45 52 96 l42 92 3 -95 c4
-143 22 -117 22 32 0 148 -4 149 -66 11 l-39 -87 -3 100 c-4 145 -22 124 -22
-27z"/>
<path d="M3560 2415 c0 -129 17 -176 22 -62 l3 62 43 -62 c23 -35 48 -63 54
-63 6 0 2 12 -8 28 -9 15 -28 44 -42 64 l-25 38 38 55 c21 30 36 58 33 61 -4
3 -26 -22 -50 -56 l-43 -62 -3 61 c-2 34 -7 61 -12 61 -6 0 -10 -53 -10 -125z"/>
<path d="M3710 2532 c0 -4 14 -64 30 -132 32 -129 31 -170 -5 -170 -8 0 -15
-4 -15 -10 0 -5 9 -10 20 -10 27 0 43 36 74 170 15 63 29 125 33 138 3 12 1
22 -4 22 -6 0 -21 -47 -33 -105 -13 -58 -27 -102 -30 -98 -3 5 -17 52 -29 106
-13 53 -27 97 -32 97 -5 0 -9 -3 -9 -8z"/>
<path d="M3890 2415 c0 -77 4 -125 10 -125 6 0 10 40 11 98 l0 97 24 -78 c34
-115 36 -115 70 0 l24 78 0 -97 c1 -58 5 -98 11 -98 6 0 10 49 10 126 0 154
-13 160 -51 23 l-26 -94 -21 70 c-12 39 -24 82 -28 98 -3 15 -12 27 -20 27
-11 0 -14 -25 -14 -125z"/>
</g>
</svg>
